<svg width="411" height="411" viewBox="0 0 411 411" fill="none" xmlns="http://www.w3.org/2000/svg">
<g clip-path="url(#clip0_1155_236)">
<path fill-rule="evenodd" clip-rule="evenodd" d="M307.15 46.8545C275.06 26.2833 236.446 15.2177 195.472 17.399C91.4976 22.9342 11.6985 111.675 17.2361 215.607C22.7736 319.539 111.551 399.305 215.526 393.77C319.5 388.235 399.299 299.494 393.762 195.562C391.529 153.66 375.766 115.686 350.932 85.6459C350.56 85.6555 350.186 85.6603 349.811 85.6603C327.504 85.6603 309.179 68.6218 307.15 46.8545ZM291.073 201.029C293.587 248.208 257.355 288.563 210.054 291.081C162.754 293.599 122.439 257.319 119.925 210.14C117.411 162.961 153.643 122.606 200.944 120.088C248.244 117.57 288.559 153.85 291.073 201.029Z" fill="#F39308"/>
<path fill-rule="evenodd" clip-rule="evenodd" d="M358.967 84.6801C383.118 115.257 398.378 153.335 400.609 195.197C406.348 302.913 323.644 394.879 215.891 400.616C108.138 406.352 16.1304 323.687 10.3912 215.971C4.6521 108.256 87.3557 16.2894 195.109 10.5529C236.011 8.37543 274.645 18.9361 307.153 38.7696C307.027 40.1063 306.963 41.4607 306.963 42.8302C306.963 44.187 307.026 45.5291 307.15 46.8536C275.06 26.2829 236.447 15.2176 195.473 17.3989C91.4987 22.9341 11.6996 111.675 17.2372 215.607C22.7747 319.539 111.552 399.305 215.527 393.77C319.501 388.235 399.3 299.494 393.763 195.562C391.53 153.66 375.768 115.686 350.934 85.6459C353.684 85.5751 356.37 85.2454 358.967 84.6801Z" fill="#4B120B"/>
<path d="M234.595 204.036C235.451 220.086 223.125 233.804 207.049 234.66C190.973 235.516 177.26 223.184 176.405 207.134C175.55 191.083 187.875 177.365 203.951 176.509C220.027 175.653 233.74 187.985 234.595 204.036Z" stroke="#4B120B" stroke-width="37.706"/>
<path d="M291.074 201.029C293.591 248.268 257.32 288.606 210.057 291.122C162.795 293.638 122.443 257.38 119.926 210.14C117.409 162.9 153.68 122.563 200.942 120.047C248.205 117.531 288.557 153.789 291.074 201.029Z" stroke="#4B120B" stroke-width="6.85563"/>
<path fill-rule="evenodd" clip-rule="evenodd" d="M320.604 268.738C299.455 307.165 259.522 334.124 212.483 336.628C140.076 340.483 78.2571 284.935 74.4012 212.564C70.5452 140.193 126.112 78.3963 198.519 74.5417C260.908 71.2203 315.436 112.002 331.797 169.647L335.144 160.858C315.711 104.486 260.739 65.3938 198.209 68.7226C122.591 72.7483 64.5548 137.287 68.5821 212.874C72.6094 288.461 137.175 346.473 212.793 342.447C262.209 339.816 304.117 311.342 326.102 270.831L320.604 268.738Z" fill="#4B120B"/>
<path d="M387.515 42.83C387.515 63.6427 370.636 80.5184 349.809 80.5184C328.983 80.5184 312.104 63.6427 312.104 42.83C312.104 22.0174 328.983 5.14172 349.809 5.14172C370.636 5.14172 387.515 22.0174 387.515 42.83Z" stroke="#4B120B" stroke-width="10.2834"/>
<ellipse cx="349.81" cy="42.83" rx="25.7086" ry="25.698" fill="#4B120B"/>
<mask id="path-8-outside-1_1155_236" maskUnits="userSpaceOnUse" x="335.239" y="-4.99945" width="44" height="235" fill="black">
<rect fill="white" x="335.239" y="-4.99945" width="44" height="235"/>
<path fill-rule="evenodd" clip-rule="evenodd" d="M341.239 0.000549316C341.392 46.018 347.766 78.2763 352.976 104.648C354.035 110.012 355.047 115.133 355.948 120.076C358.965 136.617 360.695 150.878 359.195 165.85C357.702 180.752 352.961 196.765 342.476 216.56L354.592 222.978C365.748 201.919 371.137 184.199 372.838 167.217C374.533 150.306 372.522 134.533 369.437 117.616C368.509 112.528 367.48 107.311 366.41 101.887C361.228 75.6263 355.094 44.5391 354.948 0.000549316H341.239Z"/>
</mask>
<path fill-rule="evenodd" clip-rule="evenodd" d="M341.239 0.000549316C341.392 46.018 347.766 78.2763 352.976 104.648C354.035 110.012 355.047 115.133 355.948 120.076C358.965 136.617 360.695 150.878 359.195 165.85C357.702 180.752 352.961 196.765 342.476 216.56L354.592 222.978C365.748 201.919 371.137 184.199 372.838 167.217C374.533 150.306 372.522 134.533 369.437 117.616C368.509 112.528 367.48 107.311 366.41 101.887C361.228 75.6263 355.094 44.5391 354.948 0.000549316H341.239Z" fill="#F39308"/>
<path d="M341.239 0.000549316V-4.79839H336.424L336.44 0.0165764L341.239 0.000549316ZM352.976 104.648L357.684 103.718L357.684 103.718L352.976 104.648ZM355.948 120.076L351.227 120.936L351.227 120.936L355.948 120.076ZM359.195 165.85L354.42 165.372L354.42 165.372L359.195 165.85ZM342.476 216.56L338.235 214.313L335.988 218.554L340.229 220.8L342.476 216.56ZM354.592 222.978L352.345 227.219L356.586 229.465L358.832 225.224L354.592 222.978ZM372.838 167.217L377.613 167.696L377.613 167.696L372.838 167.217ZM369.437 117.616L374.158 116.755L374.158 116.755L369.437 117.616ZM366.41 101.887L361.702 102.816L361.702 102.816L366.41 101.887ZM354.948 0.000549316L359.747 -0.0152297L359.731 -4.79839H354.948V0.000549316ZM336.44 0.0165764C336.595 46.5137 343.045 79.1433 348.268 105.579L357.684 103.718C352.486 77.4092 346.19 45.5223 346.038 -0.0154778L336.44 0.0165764ZM348.268 105.579C349.329 110.95 350.333 116.034 351.227 120.936L360.669 119.215C359.761 114.231 358.742 109.075 357.684 103.718L348.268 105.579ZM351.227 120.936C354.22 137.346 355.852 151.078 354.42 165.372L363.97 166.329C365.539 150.677 363.71 135.887 360.669 119.215L351.227 120.936ZM354.42 165.372C353 179.546 348.486 194.961 338.235 214.313L346.716 218.806C357.437 198.569 362.404 181.958 363.97 166.329L354.42 165.372ZM340.229 220.8L352.345 227.219L356.838 218.737L344.722 212.319L340.229 220.8ZM358.832 225.224C370.223 203.722 375.839 185.405 377.613 167.696L368.063 166.739C366.435 182.992 361.273 200.115 350.351 220.732L358.832 225.224ZM377.613 167.696C379.376 150.107 377.267 133.805 374.158 116.755L364.716 118.477C367.777 135.262 369.69 150.506 368.063 166.739L377.613 167.696ZM374.158 116.755C373.223 111.627 372.187 106.375 371.118 100.958L361.702 102.816C362.773 108.246 363.796 113.429 364.716 118.477L374.158 116.755ZM371.118 100.958C365.948 74.7584 359.892 44.0431 359.747 -0.0152297L350.149 0.0163283C350.297 45.035 356.508 76.4942 361.702 102.816L371.118 100.958ZM354.948 -4.79839H341.239V4.79949H354.948V-4.79839Z" fill="#4B120B" mask="url(#path-8-outside-1_1155_236)"/>
<rect width="9.56386" height="49.3279" transform="matrix(-0.447986 0.89404 -0.894188 -0.447692 363.043 243.965)" fill="#4B120B"/>
<path d="M309.762 271.187L332.382 208.936L366.202 225.87L330.442 281.542L309.762 271.187Z" fill="#F39308" stroke="#4B120B" stroke-width="4.79894"/>
<rect width="13.7101" height="15.3196" transform="matrix(0.89415 0.447768 -0.448062 0.894002 345.53 210.565)" fill="#F39308"/>
</g>
<defs>
<clipPath id="clip0_1155_236">
<rect width="411" height="411" fill="white"/>
</clipPath>
</defs>
</svg>
