<svg width="13" height="15" viewBox="0 0 13 15" fill="none" xmlns="http://www.w3.org/2000/svg">
<path d="M9.24609 3.69189C9.38216 3.69189 9.6141 3.71354 9.94189 3.75684C10.2697 3.80013 10.6284 3.92383 11.0181 4.12793C11.4139 4.32585 11.7726 4.65674 12.0942 5.12061C12.0757 5.13916 11.986 5.20719 11.8252 5.32471C11.6644 5.43604 11.485 5.60303 11.2871 5.82568C11.0892 6.04215 10.916 6.32048 10.7676 6.66064C10.6191 6.99463 10.5449 7.39355 10.5449 7.85742C10.5449 8.38932 10.6377 8.84082 10.8232 9.21191C11.015 9.58301 11.2345 9.88298 11.4819 10.1118C11.7355 10.3345 11.9582 10.4984 12.1499 10.6035C12.3478 10.7087 12.453 10.7643 12.4653 10.7705C12.4591 10.7952 12.3787 11.0148 12.2241 11.4292C12.0757 11.8436 11.8283 12.3044 11.4819 12.8115C11.1789 13.2507 10.8511 13.6558 10.4985 14.0269C10.1522 14.3979 9.7347 14.5835 9.24609 14.5835C8.91829 14.5835 8.64925 14.5371 8.43896 14.4443C8.22868 14.3454 8.01221 14.2495 7.78955 14.1567C7.56689 14.0578 7.26693 14.0083 6.88965 14.0083C6.52474 14.0083 6.21859 14.0578 5.97119 14.1567C5.72998 14.2557 5.49805 14.3547 5.27539 14.4536C5.05892 14.5526 4.80225 14.6021 4.50537 14.6021C4.05387 14.6021 3.65804 14.4227 3.31787 14.064C2.9777 13.7052 2.62826 13.2754 2.26953 12.7744C1.85514 12.1807 1.49951 11.457 1.20264 10.6035C0.911947 9.74382 0.766602 8.87793 0.766602 8.00586C0.766602 7.07194 0.942871 6.28955 1.29541 5.65869C1.64795 5.02165 2.09945 4.54232 2.6499 4.2207C3.20654 3.8929 3.78174 3.729 4.37549 3.729C4.69092 3.729 4.98779 3.78158 5.26611 3.88672C5.54443 3.98568 5.8042 4.08773 6.04541 4.19287C6.29281 4.29801 6.51546 4.35059 6.71338 4.35059C6.90511 4.35059 7.12777 4.29492 7.38135 4.18359C7.63493 4.07227 7.91943 3.96403 8.23486 3.85889C8.55029 3.74756 8.88737 3.69189 9.24609 3.69189ZM8.73584 2.51367C8.49463 2.80436 8.19157 3.04867 7.82666 3.24658C7.46175 3.43831 7.1154 3.53418 6.7876 3.53418C6.71956 3.53418 6.65462 3.52799 6.59277 3.51562C6.58659 3.49707 6.5804 3.46305 6.57422 3.41357C6.56803 3.3641 6.56494 3.31152 6.56494 3.25586C6.56494 2.88477 6.64535 2.52604 6.80615 2.17969C6.96696 1.82715 7.14941 1.53646 7.35352 1.30762C7.61328 0.998372 7.94108 0.741699 8.33691 0.537598C8.73275 0.333496 9.11003 0.22526 9.46875 0.212891C9.4873 0.293294 9.49658 0.38916 9.49658 0.500488C9.49658 0.871582 9.42546 1.2334 9.2832 1.58594C9.14095 1.93229 8.9585 2.24154 8.73584 2.51367Z" fill="white"/>
</svg>
