<svg width="512" height="512" viewBox="0 0 512 512" fill="none" xmlns="http://www.w3.org/2000/svg">
<g clip-path="url(#clip0_1070_165)">
<mask id="mask0_1070_165" style="mask-type:luminance" maskUnits="userSpaceOnUse" x="0" y="0" width="512" height="512">
<path d="M512 0H0V512H512V0Z" fill="white"/>
</mask>
<g mask="url(#mask0_1070_165)">
<path d="M501.76 261.819C501.76 243.666 500.132 226.212 497.106 209.454H256V308.48H393.774C387.84 340.48 369.805 367.593 342.692 385.746V449.979H425.426C473.833 405.412 501.76 339.781 501.76 261.819Z" fill="#4285F4"/>
<path d="M256 512C325.12 512 383.068 489.075 425.423 449.979L342.689 385.746C319.767 401.106 290.442 410.181 256 410.181C189.322 410.181 132.887 365.148 112.755 304.64H27.228V370.967C69.3528 454.633 155.927 512 256 512Z" fill="#34A853"/>
<path d="M112.755 304.64C107.635 289.28 104.727 272.873 104.727 256C104.727 239.127 107.635 222.72 112.755 207.36V141.033H27.2281C9.89183 175.593 0 214.692 0 256C0 297.308 9.89183 336.407 27.2281 370.967L112.755 304.64Z" fill="#FBBC04"/>
<path d="M256 101.819C293.583 101.819 327.329 114.734 353.861 140.101L427.287 66.6752C382.953 25.367 325.002 0 256 0C155.927 0 69.3528 57.367 27.228 141.033L112.755 207.36C132.887 146.852 189.322 101.819 256 101.819Z" fill="#E94235"/>
</g>
</g>
<defs>
<clipPath id="clip0_1070_165">
<rect width="512" height="512" fill="white"/>
</clipPath>
</defs>
</svg>
