<svg width="1200" height="630" viewBox="0 0 1200 630" fill="none" xmlns="http://www.w3.org/2000/svg">
<g clip-path="url(#clip0_18_8)">
<rect width="1200" height="630" fill="white"/>
<rect width="1200" height="630" fill="black"/>
<path d="M600 325C669.036 325 725 269.036 725 200C725 130.964 669.036 75 600 75C530.965 75 475 130.964 475 200C475 269.036 530.965 325 600 325Z" stroke="white" stroke-width="30.0781" stroke-linecap="round" stroke-linejoin="round"/>
<path d="M525 200C525 178.75 533.75 160 547.5 147.5" stroke="white" stroke-width="30.0781" stroke-linecap="round" stroke-linejoin="round"/>
<path d="M600 225C613.807 225 625 213.807 625 200C625 186.193 613.807 175 600 175C586.193 175 575 186.193 575 200C575 213.807 586.193 225 600 225Z" stroke="white" stroke-width="30.0781" stroke-linecap="round" stroke-linejoin="round"/>
<path d="M675 200C675 221.25 666.25 240 652.5 252.5" stroke="white" stroke-width="30.0781" stroke-linecap="round" stroke-linejoin="round"/>
<path d="M270.02 474V413.8H297.54C303.044 413.8 307.774 414.689 311.73 416.466C315.743 418.243 318.839 420.823 321.018 424.206C323.197 427.531 324.286 431.487 324.286 436.074C324.286 440.603 323.197 444.531 321.018 447.856C318.839 451.124 315.743 453.647 311.73 455.424C307.774 457.144 303.044 458.004 297.54 458.004H279.48L287.048 450.866V474H270.02ZM307.258 474L292.294 452.07H310.44L325.49 474H307.258ZM287.048 452.672L279.48 444.846H296.508C300.063 444.846 302.7 444.072 304.42 442.524C306.197 440.976 307.086 438.826 307.086 436.074C307.086 433.265 306.197 431.086 304.42 429.538C302.7 427.99 300.063 427.216 296.508 427.216H279.48L287.048 419.39V452.672ZM357.33 474.774C351.826 474.774 347.01 473.742 342.882 471.678C338.811 469.557 335.629 466.69 333.336 463.078C331.1 459.409 329.982 455.252 329.982 450.608C329.982 445.964 331.071 441.836 333.25 438.224C335.486 434.555 338.553 431.717 342.452 429.71C346.351 427.646 350.737 426.614 355.61 426.614C360.197 426.614 364.382 427.56 368.166 429.452C371.95 431.287 374.96 434.01 377.196 437.622C379.432 441.234 380.55 445.62 380.55 450.78C380.55 451.353 380.521 452.013 380.464 452.758C380.407 453.503 380.349 454.191 380.292 454.822H343.398V446.222H371.606L365.414 448.63C365.471 446.509 365.07 444.674 364.21 443.126C363.407 441.578 362.261 440.374 360.77 439.514C359.337 438.654 357.645 438.224 355.696 438.224C353.747 438.224 352.027 438.654 350.536 439.514C349.103 440.374 347.985 441.607 347.182 443.212C346.379 444.76 345.978 446.595 345.978 448.716V451.21C345.978 453.503 346.437 455.481 347.354 457.144C348.329 458.807 349.705 460.097 351.482 461.014C353.259 461.874 355.381 462.304 357.846 462.304C360.139 462.304 362.089 461.989 363.694 461.358C365.357 460.67 366.991 459.638 368.596 458.262L377.196 467.206C374.96 469.671 372.208 471.563 368.94 472.882C365.672 474.143 361.802 474.774 357.33 474.774ZM411.906 474.774C406.746 474.774 402.131 473.742 398.06 471.678C394.047 469.614 390.893 466.776 388.6 463.164C386.307 459.495 385.16 455.309 385.16 450.608C385.16 445.907 386.307 441.75 388.6 438.138C390.893 434.526 394.047 431.717 398.06 429.71C402.131 427.646 406.746 426.614 411.906 426.614C417.181 426.614 421.739 427.732 425.58 429.968C429.421 432.204 432.145 435.357 433.75 439.428L421.108 445.878C420.019 443.699 418.671 442.123 417.066 441.148C415.461 440.116 413.712 439.6 411.82 439.6C409.928 439.6 408.208 440.03 406.66 440.89C405.112 441.75 403.879 443.011 402.962 444.674C402.102 446.279 401.672 448.257 401.672 450.608C401.672 453.016 402.102 455.051 402.962 456.714C403.879 458.377 405.112 459.638 406.66 460.498C408.208 461.358 409.928 461.788 411.82 461.788C413.712 461.788 415.461 461.301 417.066 460.326C418.671 459.294 420.019 457.689 421.108 455.51L433.75 461.96C432.145 466.031 429.421 469.184 425.58 471.42C421.739 473.656 417.181 474.774 411.906 474.774ZM462.79 474.774C457.688 474.774 453.158 473.742 449.202 471.678C445.246 469.614 442.122 466.776 439.828 463.164C437.592 459.495 436.474 455.309 436.474 450.608C436.474 445.907 437.592 441.75 439.828 438.138C442.122 434.526 445.246 431.717 449.202 429.71C453.158 427.646 457.688 426.614 462.79 426.614C467.893 426.614 472.422 427.646 476.378 429.71C480.392 431.717 483.516 434.526 485.752 438.138C487.988 441.75 489.106 445.907 489.106 450.608C489.106 455.309 487.988 459.495 485.752 463.164C483.516 466.776 480.392 469.614 476.378 471.678C472.422 473.742 467.893 474.774 462.79 474.774ZM462.79 461.788C464.682 461.788 466.345 461.358 467.778 460.498C469.269 459.638 470.444 458.377 471.304 456.714C472.164 454.994 472.594 452.959 472.594 450.608C472.594 448.257 472.164 446.279 471.304 444.674C470.444 443.011 469.269 441.75 467.778 440.89C466.345 440.03 464.682 439.6 462.79 439.6C460.956 439.6 459.293 440.03 457.802 440.89C456.369 441.75 455.194 443.011 454.276 444.674C453.416 446.279 452.986 448.257 452.986 450.608C452.986 452.959 453.416 454.994 454.276 456.714C455.194 458.377 456.369 459.638 457.802 460.498C459.293 461.358 460.956 461.788 462.79 461.788ZM496.676 474V427.388H512.242V440.976L509.92 437.106C511.296 433.609 513.532 431 516.628 429.28C519.724 427.503 523.479 426.614 527.894 426.614V441.32C527.148 441.205 526.489 441.148 525.916 441.148C525.4 441.091 524.826 441.062 524.196 441.062C520.87 441.062 518.176 441.979 516.112 443.814C514.048 445.591 513.016 448.515 513.016 452.586V474H496.676ZM554.513 474.774C550.27 474.774 546.4 473.799 542.903 471.85C539.463 469.843 536.711 467.063 534.647 463.508C532.583 459.896 531.551 455.596 531.551 450.608C531.551 445.677 532.583 441.435 534.647 437.88C536.711 434.268 539.463 431.487 542.903 429.538C546.4 427.589 550.27 426.614 554.513 426.614C558.526 426.614 561.909 427.474 564.661 429.194C567.47 430.914 569.591 433.551 571.025 437.106C572.458 440.661 573.175 445.161 573.175 450.608C573.175 456.169 572.487 460.727 571.111 464.282C569.735 467.837 567.671 470.474 564.919 472.194C562.167 473.914 558.698 474.774 554.513 474.774ZM557.953 461.788C559.787 461.788 561.421 461.358 562.855 460.498C564.345 459.638 565.521 458.377 566.381 456.714C567.241 454.994 567.671 452.959 567.671 450.608C567.671 448.257 567.241 446.279 566.381 444.674C565.521 443.011 564.345 441.75 562.855 440.89C561.421 440.03 559.787 439.6 557.953 439.6C556.061 439.6 554.369 440.03 552.879 440.89C551.445 441.75 550.299 443.011 549.439 444.674C548.579 446.279 548.149 448.257 548.149 450.608C548.149 452.959 548.579 454.994 549.439 456.714C550.299 458.377 551.445 459.638 552.879 460.498C554.369 461.358 556.061 461.788 557.953 461.788ZM568.187 474V466.002L568.273 450.608L567.413 435.214V410.188H583.753V474H568.187ZM616.196 475.204C611.265 475.204 606.506 474.602 601.92 473.398C597.39 472.137 593.692 470.531 590.826 468.582L596.416 456.026C599.11 457.746 602.206 459.179 605.704 460.326C609.258 461.415 612.784 461.96 616.282 461.96C618.632 461.96 620.524 461.759 621.958 461.358C623.391 460.899 624.423 460.326 625.054 459.638C625.742 458.893 626.086 458.033 626.086 457.058C626.086 455.682 625.455 454.593 624.194 453.79C622.932 452.987 621.298 452.328 619.292 451.812C617.285 451.296 615.049 450.78 612.584 450.264C610.176 449.748 607.739 449.089 605.274 448.286C602.866 447.483 600.658 446.451 598.652 445.19C596.645 443.871 595.011 442.18 593.75 440.116C592.488 437.995 591.858 435.329 591.858 432.118C591.858 428.506 592.832 425.238 594.782 422.314C596.788 419.39 599.77 417.039 603.726 415.262C607.682 413.485 612.612 412.596 618.518 412.596C622.474 412.596 626.344 413.055 630.128 413.972C633.969 414.832 637.38 416.122 640.362 417.842L635.116 430.484C632.249 428.936 629.411 427.789 626.602 427.044C623.792 426.241 621.069 425.84 618.432 425.84C616.081 425.84 614.189 426.098 612.756 426.614C611.322 427.073 610.29 427.703 609.66 428.506C609.029 429.309 608.714 430.226 608.714 431.258C608.714 432.577 609.316 433.637 610.52 434.44C611.781 435.185 613.415 435.816 615.422 436.332C617.486 436.791 619.722 437.278 622.13 437.794C624.595 438.31 627.032 438.969 629.44 439.772C631.905 440.517 634.141 441.549 636.148 442.868C638.154 444.129 639.76 445.821 640.964 447.942C642.225 450.006 642.856 452.615 642.856 455.768C642.856 459.265 641.852 462.505 639.846 465.486C637.896 468.41 634.944 470.761 630.988 472.538C627.089 474.315 622.158 475.204 616.196 475.204ZM673.769 474.774C668.609 474.774 663.994 473.742 659.923 471.678C655.91 469.614 652.757 466.776 650.463 463.164C648.17 459.495 647.023 455.309 647.023 450.608C647.023 445.907 648.17 441.75 650.463 438.138C652.757 434.526 655.91 431.717 659.923 429.71C663.994 427.646 668.609 426.614 673.769 426.614C679.044 426.614 683.602 427.732 687.443 429.968C691.285 432.204 694.008 435.357 695.613 439.428L682.971 445.878C681.882 443.699 680.535 442.123 678.929 441.148C677.324 440.116 675.575 439.6 673.683 439.6C671.791 439.6 670.071 440.03 668.523 440.89C666.975 441.75 665.743 443.011 664.825 444.674C663.965 446.279 663.535 448.257 663.535 450.608C663.535 453.016 663.965 455.051 664.825 456.714C665.743 458.377 666.975 459.638 668.523 460.498C670.071 461.358 671.791 461.788 673.683 461.788C675.575 461.788 677.324 461.301 678.929 460.326C680.535 459.294 681.882 457.689 682.971 455.51L695.613 461.96C694.008 466.031 691.285 469.184 687.443 471.42C683.602 473.656 679.044 474.774 673.769 474.774ZM701.766 474V427.388H717.332V440.976L715.01 437.106C716.386 433.609 718.622 431 721.718 429.28C724.814 427.503 728.569 426.614 732.984 426.614V441.32C732.238 441.205 731.579 441.148 731.006 441.148C730.49 441.091 729.916 441.062 729.286 441.062C725.96 441.062 723.266 441.979 721.202 443.814C719.138 445.591 718.106 448.515 718.106 452.586V474H701.766ZM765.421 474V465.314L764.303 463.164V447.168C764.303 444.588 763.5 442.61 761.895 441.234C760.347 439.801 757.853 439.084 754.413 439.084C752.177 439.084 749.912 439.457 747.619 440.202C745.326 440.89 743.376 441.865 741.771 443.126L736.267 432.032C738.904 430.312 742.058 428.993 745.727 428.076C749.454 427.101 753.152 426.614 756.821 426.614C764.389 426.614 770.237 428.363 774.365 431.86C778.55 435.3 780.643 440.718 780.643 448.114V474H765.421ZM751.661 474.774C747.934 474.774 744.781 474.143 742.201 472.882C739.621 471.621 737.643 469.901 736.267 467.722C734.948 465.543 734.289 463.107 734.289 460.412C734.289 457.545 735.006 455.08 736.439 453.016C737.93 450.895 740.194 449.289 743.233 448.2C746.272 447.053 750.199 446.48 755.015 446.48H766.023V454.994H757.251C754.614 454.994 752.75 455.424 751.661 456.284C750.629 457.144 750.113 458.291 750.113 459.724C750.113 461.157 750.658 462.304 751.747 463.164C752.836 464.024 754.327 464.454 756.219 464.454C757.996 464.454 759.602 464.024 761.035 463.164C762.526 462.247 763.615 460.871 764.303 459.036L766.539 465.056C765.679 468.267 763.988 470.703 761.465 472.366C759 473.971 755.732 474.774 751.661 474.774ZM811.769 474.774C805.806 474.774 801.162 473.312 797.837 470.388C794.512 467.407 792.849 462.935 792.849 456.972V416.982H809.189V456.8C809.189 458.463 809.648 459.781 810.565 460.756C811.482 461.673 812.658 462.132 814.091 462.132C816.04 462.132 817.703 461.645 819.079 460.67L823.121 472.108C821.745 473.025 820.054 473.685 818.047 474.086C816.04 474.545 813.948 474.774 811.769 474.774ZM786.055 441.32V429.108H819.853V441.32H786.055ZM851.9 474.774C846.74 474.774 842.125 473.742 838.054 471.678C834.041 469.614 830.887 466.776 828.594 463.164C826.301 459.495 825.154 455.309 825.154 450.608C825.154 445.907 826.301 441.75 828.594 438.138C830.887 434.526 834.041 431.717 838.054 429.71C842.125 427.646 846.74 426.614 851.9 426.614C857.175 426.614 861.733 427.732 865.574 429.968C869.415 432.204 872.139 435.357 873.744 439.428L861.102 445.878C860.013 443.699 858.665 442.123 857.06 441.148C855.455 440.116 853.706 439.6 851.814 439.6C849.922 439.6 848.202 440.03 846.654 440.89C845.106 441.75 843.873 443.011 842.956 444.674C842.096 446.279 841.666 448.257 841.666 450.608C841.666 453.016 842.096 455.051 842.956 456.714C843.873 458.377 845.106 459.638 846.654 460.498C848.202 461.358 849.922 461.788 851.814 461.788C853.706 461.788 855.455 461.301 857.06 460.326C858.665 459.294 860.013 457.689 861.102 455.51L873.744 461.96C872.139 466.031 869.415 469.184 865.574 471.42C861.733 473.656 857.175 474.774 851.9 474.774ZM910.086 426.614C913.698 426.614 916.966 427.359 919.89 428.85C922.814 430.283 925.108 432.519 926.77 435.558C928.49 438.597 929.35 442.524 929.35 447.34V474H913.01V450.006C913.01 446.681 912.322 444.273 910.946 442.782C909.628 441.234 907.764 440.46 905.356 440.46C903.636 440.46 902.06 440.861 900.626 441.664C899.193 442.409 898.075 443.585 897.272 445.19C896.47 446.795 896.068 448.888 896.068 451.468V474H879.728V410.188H896.068V440.632L892.284 436.762C894.062 433.379 896.498 430.857 899.594 429.194C902.69 427.474 906.188 426.614 910.086 426.614Z" fill="white"/>
<path d="M345.736 544L338.184 521.6H340.616L347.688 542.688H346.472L353.768 521.6H355.944L363.144 542.688H361.992L369.128 521.6H371.4L363.848 544H361.352L354.472 524H355.112L348.2 544H345.736ZM384.307 527.04C385.672 527.04 386.867 527.307 387.891 527.84C388.936 528.352 389.747 529.141 390.323 530.208C390.92 531.275 391.219 532.619 391.219 534.24V544H388.947V534.464C388.947 532.693 388.499 531.36 387.603 530.464C386.728 529.547 385.491 529.088 383.891 529.088C382.696 529.088 381.651 529.333 380.755 529.824C379.88 530.293 379.197 530.987 378.707 531.904C378.237 532.8 378.003 533.888 378.003 535.168V544H375.731V520.256H378.003V531.808L377.555 530.944C378.088 529.728 378.941 528.779 380.115 528.096C381.288 527.392 382.685 527.04 384.307 527.04ZM404.492 544.16C402.742 544.16 401.206 543.797 399.884 543.072C398.561 542.325 397.526 541.312 396.78 540.032C396.033 538.731 395.66 537.248 395.66 535.584C395.66 533.92 396.012 532.448 396.716 531.168C397.441 529.888 398.422 528.885 399.66 528.16C400.918 527.413 402.326 527.04 403.884 527.04C405.462 527.04 406.86 527.403 408.076 528.128C409.313 528.832 410.284 529.835 410.988 531.136C411.692 532.416 412.044 533.899 412.044 535.584C412.044 535.691 412.033 535.808 412.012 535.936C412.012 536.043 412.012 536.16 412.012 536.288H397.388V534.592H410.796L409.9 535.264C409.9 534.048 409.633 532.971 409.1 532.032C408.588 531.072 407.884 530.325 406.988 529.792C406.092 529.259 405.057 528.992 403.884 528.992C402.732 528.992 401.697 529.259 400.78 529.792C399.862 530.325 399.148 531.072 398.636 532.032C398.124 532.992 397.868 534.091 397.868 535.328V535.68C397.868 536.96 398.145 538.091 398.7 539.072C399.276 540.032 400.065 540.789 401.068 541.344C402.092 541.877 403.254 542.144 404.556 542.144C405.58 542.144 406.529 541.963 407.404 541.6C408.3 541.237 409.068 540.683 409.708 539.936L410.988 541.408C410.241 542.304 409.302 542.987 408.172 543.456C407.062 543.925 405.836 544.16 404.492 544.16ZM416.668 544V527.2H418.844V531.776L418.62 530.976C419.089 529.696 419.879 528.725 420.988 528.064C422.097 527.381 423.473 527.04 425.116 527.04V529.248C425.031 529.248 424.945 529.248 424.86 529.248C424.775 529.227 424.689 529.216 424.604 529.216C422.833 529.216 421.447 529.76 420.444 530.848C419.441 531.915 418.94 533.44 418.94 535.424V544H416.668ZM436.242 544.16C434.492 544.16 432.956 543.797 431.634 543.072C430.311 542.325 429.276 541.312 428.53 540.032C427.783 538.731 427.41 537.248 427.41 535.584C427.41 533.92 427.762 532.448 428.466 531.168C429.191 529.888 430.172 528.885 431.41 528.16C432.668 527.413 434.076 527.04 435.634 527.04C437.212 527.04 438.61 527.403 439.826 528.128C441.063 528.832 442.034 529.835 442.738 531.136C443.442 532.416 443.794 533.899 443.794 535.584C443.794 535.691 443.783 535.808 443.762 535.936C443.762 536.043 443.762 536.16 443.762 536.288H429.138V534.592H442.546L441.65 535.264C441.65 534.048 441.383 532.971 440.85 532.032C440.338 531.072 439.634 530.325 438.738 529.792C437.842 529.259 436.807 528.992 435.634 528.992C434.482 528.992 433.447 529.259 432.53 529.792C431.612 530.325 430.898 531.072 430.386 532.032C429.874 532.992 429.618 534.091 429.618 535.328V535.68C429.618 536.96 429.895 538.091 430.45 539.072C431.026 540.032 431.815 540.789 432.818 541.344C433.842 541.877 435.004 542.144 436.306 542.144C437.33 542.144 438.279 541.963 439.154 541.6C440.05 541.237 440.818 540.683 441.458 539.936L442.738 541.408C441.991 542.304 441.052 542.987 439.922 543.456C438.812 543.925 437.586 544.16 436.242 544.16ZM477.785 527.04C479.15 527.04 480.334 527.307 481.337 527.84C482.361 528.352 483.15 529.141 483.705 530.208C484.281 531.275 484.569 532.619 484.569 534.24V544H482.297V534.464C482.297 532.693 481.87 531.36 481.017 530.464C480.185 529.547 479.001 529.088 477.465 529.088C476.313 529.088 475.31 529.333 474.457 529.824C473.625 530.293 472.974 530.987 472.505 531.904C472.057 532.8 471.833 533.888 471.833 535.168V544H469.561V534.464C469.561 532.693 469.134 531.36 468.281 530.464C467.428 529.547 466.233 529.088 464.697 529.088C463.566 529.088 462.574 529.333 461.721 529.824C460.868 530.293 460.206 530.987 459.737 531.904C459.289 532.8 459.065 533.888 459.065 535.168V544H456.793V527.2H458.969V531.744L458.617 530.944C459.129 529.728 459.95 528.779 461.081 528.096C462.233 527.392 463.588 527.04 465.145 527.04C466.788 527.04 468.185 527.456 469.337 528.288C470.489 529.099 471.236 530.325 471.577 531.968L470.681 531.616C471.172 530.251 472.036 529.152 473.273 528.32C474.532 527.467 476.036 527.04 477.785 527.04ZM497.675 544.16C496.245 544.16 494.997 543.893 493.931 543.36C492.864 542.827 492.032 542.027 491.435 540.96C490.859 539.893 490.571 538.56 490.571 536.96V527.2H492.843V536.704C492.843 538.496 493.28 539.851 494.155 540.768C495.051 541.664 496.299 542.112 497.899 542.112C499.072 542.112 500.085 541.877 500.939 541.408C501.813 540.917 502.475 540.213 502.923 539.296C503.392 538.379 503.627 537.28 503.627 536V527.2H505.899V544H503.722V539.392L504.075 540.224C503.541 541.461 502.709 542.432 501.579 543.136C500.469 543.819 499.168 544.16 497.675 544.16ZM516.743 544.16C515.356 544.16 514.044 543.968 512.807 543.584C511.569 543.179 510.599 542.677 509.895 542.08L510.919 540.288C511.601 540.8 512.476 541.248 513.543 541.632C514.609 541.995 515.729 542.176 516.903 542.176C518.503 542.176 519.655 541.931 520.359 541.44C521.063 540.928 521.415 540.256 521.415 539.424C521.415 538.805 521.212 538.325 520.807 537.984C520.423 537.621 519.911 537.355 519.271 537.184C518.631 536.992 517.916 536.832 517.127 536.704C516.337 536.576 515.548 536.427 514.759 536.256C513.991 536.085 513.287 535.84 512.647 535.52C512.007 535.179 511.484 534.72 511.079 534.144C510.695 533.568 510.503 532.8 510.503 531.84C510.503 530.923 510.759 530.101 511.271 529.376C511.783 528.651 512.529 528.085 513.511 527.68C514.513 527.253 515.729 527.04 517.159 527.04C518.247 527.04 519.335 527.189 520.423 527.488C521.511 527.765 522.407 528.139 523.111 528.608L522.119 530.432C521.372 529.92 520.572 529.557 519.719 529.344C518.865 529.109 518.012 528.992 517.159 528.992C515.644 528.992 514.524 529.259 513.799 529.792C513.095 530.304 512.743 530.965 512.743 531.776C512.743 532.416 512.935 532.917 513.319 533.28C513.724 533.643 514.247 533.931 514.887 534.144C515.548 534.336 516.263 534.496 517.031 534.624C517.82 534.752 518.599 534.912 519.367 535.104C520.156 535.275 520.871 535.52 521.511 535.84C522.172 536.139 522.695 536.576 523.079 537.152C523.484 537.707 523.687 538.443 523.687 539.36C523.687 540.341 523.409 541.195 522.855 541.92C522.321 542.624 521.532 543.179 520.487 543.584C519.463 543.968 518.215 544.16 516.743 544.16ZM527.856 544V527.2H530.128V544H527.856ZM529.008 523.488C528.538 523.488 528.144 523.328 527.824 523.008C527.504 522.688 527.344 522.304 527.344 521.856C527.344 521.408 527.504 521.035 527.824 520.736C528.144 520.416 528.538 520.256 529.008 520.256C529.477 520.256 529.872 520.405 530.192 520.704C530.512 521.003 530.672 521.376 530.672 521.824C530.672 522.293 530.512 522.688 530.192 523.008C529.893 523.328 529.498 523.488 529.008 523.488ZM543.425 544.16C541.761 544.16 540.268 543.797 538.945 543.072C537.644 542.325 536.62 541.312 535.873 540.032C535.127 538.731 534.753 537.248 534.753 535.584C534.753 533.899 535.127 532.416 535.873 531.136C536.62 529.856 537.644 528.853 538.945 528.128C540.268 527.403 541.761 527.04 543.425 527.04C544.855 527.04 546.145 527.317 547.297 527.872C548.449 528.427 549.356 529.259 550.017 530.368L548.321 531.52C547.745 530.667 547.031 530.037 546.177 529.632C545.324 529.227 544.396 529.024 543.393 529.024C542.199 529.024 541.121 529.301 540.161 529.856C539.201 530.389 538.444 531.147 537.889 532.128C537.335 533.109 537.057 534.261 537.057 535.584C537.057 536.907 537.335 538.059 537.889 539.04C538.444 540.021 539.201 540.789 540.161 541.344C541.121 541.877 542.199 542.144 543.393 542.144C544.396 542.144 545.324 541.941 546.177 541.536C547.031 541.131 547.745 540.512 548.321 539.68L550.017 540.832C549.356 541.92 548.449 542.752 547.297 543.328C546.145 543.883 544.855 544.16 543.425 544.16ZM583.848 527.04C585.213 527.04 586.397 527.307 587.4 527.84C588.424 528.352 589.213 529.141 589.768 530.208C590.344 531.275 590.632 532.619 590.632 534.24V544H588.36V534.464C588.36 532.693 587.933 531.36 587.08 530.464C586.248 529.547 585.064 529.088 583.528 529.088C582.376 529.088 581.373 529.333 580.52 529.824C579.688 530.293 579.037 530.987 578.568 531.904C578.12 532.8 577.896 533.888 577.896 535.168V544H575.624V534.464C575.624 532.693 575.197 531.36 574.344 530.464C573.49 529.547 572.296 529.088 570.76 529.088C569.629 529.088 568.637 529.333 567.784 529.824C566.93 530.293 566.269 530.987 565.8 531.904C565.352 532.8 565.128 533.888 565.128 535.168V544H562.856V527.2H565.032V531.744L564.68 530.944C565.192 529.728 566.013 528.779 567.144 528.096C568.296 527.392 569.65 527.04 571.208 527.04C572.85 527.04 574.248 527.456 575.4 528.288C576.552 529.099 577.298 530.325 577.64 531.968L576.744 531.616C577.234 530.251 578.098 529.152 579.336 528.32C580.594 527.467 582.098 527.04 583.848 527.04ZM603.929 544.16C602.18 544.16 600.644 543.797 599.321 543.072C597.998 542.325 596.964 541.312 596.217 540.032C595.47 538.731 595.097 537.248 595.097 535.584C595.097 533.92 595.449 532.448 596.153 531.168C596.878 529.888 597.86 528.885 599.097 528.16C600.356 527.413 601.764 527.04 603.321 527.04C604.9 527.04 606.297 527.403 607.513 528.128C608.75 528.832 609.721 529.835 610.425 531.136C611.129 532.416 611.481 533.899 611.481 535.584C611.481 535.691 611.47 535.808 611.449 535.936C611.449 536.043 611.449 536.16 611.449 536.288H596.825V534.592H610.233L609.337 535.264C609.337 534.048 609.07 532.971 608.537 532.032C608.025 531.072 607.321 530.325 606.425 529.792C605.529 529.259 604.494 528.992 603.321 528.992C602.169 528.992 601.134 529.259 600.217 529.792C599.3 530.325 598.585 531.072 598.073 532.032C597.561 532.992 597.305 534.091 597.305 535.328V535.68C597.305 536.96 597.582 538.091 598.137 539.072C598.713 540.032 599.502 540.789 600.505 541.344C601.529 541.877 602.692 542.144 603.993 542.144C605.017 542.144 605.966 541.963 606.841 541.6C607.737 541.237 608.505 540.683 609.145 539.936L610.425 541.408C609.678 542.304 608.74 542.987 607.609 543.456C606.5 543.925 605.273 544.16 603.929 544.16ZM623.242 544.16C621.492 544.16 619.956 543.797 618.634 543.072C617.311 542.325 616.276 541.312 615.53 540.032C614.783 538.731 614.41 537.248 614.41 535.584C614.41 533.92 614.762 532.448 615.466 531.168C616.191 529.888 617.172 528.885 618.41 528.16C619.668 527.413 621.076 527.04 622.634 527.04C624.212 527.04 625.61 527.403 626.826 528.128C628.063 528.832 629.034 529.835 629.738 531.136C630.442 532.416 630.794 533.899 630.794 535.584C630.794 535.691 630.783 535.808 630.762 535.936C630.762 536.043 630.762 536.16 630.762 536.288H616.138V534.592H629.546L628.65 535.264C628.65 534.048 628.383 532.971 627.85 532.032C627.338 531.072 626.634 530.325 625.738 529.792C624.842 529.259 623.807 528.992 622.634 528.992C621.482 528.992 620.447 529.259 619.53 529.792C618.612 530.325 617.898 531.072 617.386 532.032C616.874 532.992 616.618 534.091 616.618 535.328V535.68C616.618 536.96 616.895 538.091 617.45 539.072C618.026 540.032 618.815 540.789 619.818 541.344C620.842 541.877 622.004 542.144 623.306 542.144C624.33 542.144 625.279 541.963 626.154 541.6C627.05 541.237 627.818 540.683 628.458 539.936L629.738 541.408C628.991 542.304 628.052 542.987 626.922 543.456C625.812 543.925 624.586 544.16 623.242 544.16ZM640.73 544.16C639.151 544.16 637.935 543.733 637.082 542.88C636.229 542.027 635.802 540.821 635.802 539.264V523.488H638.074V539.136C638.074 540.117 638.319 540.875 638.81 541.408C639.322 541.941 640.047 542.208 640.986 542.208C641.989 542.208 642.821 541.92 643.482 541.344L644.282 542.976C643.834 543.381 643.29 543.68 642.65 543.872C642.031 544.064 641.391 544.16 640.73 544.16ZM632.794 529.088V527.2H643.194V529.088H632.794ZM652.93 544.16C651.543 544.16 650.231 543.968 648.994 543.584C647.757 543.179 646.786 542.677 646.082 542.08L647.106 540.288C647.789 540.8 648.663 541.248 649.73 541.632C650.797 541.995 651.917 542.176 653.09 542.176C654.69 542.176 655.842 541.931 656.546 541.44C657.25 540.928 657.602 540.256 657.602 539.424C657.602 538.805 657.399 538.325 656.994 537.984C656.61 537.621 656.098 537.355 655.458 537.184C654.818 536.992 654.103 536.832 653.314 536.704C652.525 536.576 651.735 536.427 650.946 536.256C650.178 536.085 649.474 535.84 648.834 535.52C648.194 535.179 647.671 534.72 647.266 534.144C646.882 533.568 646.69 532.8 646.69 531.84C646.69 530.923 646.946 530.101 647.458 529.376C647.97 528.651 648.717 528.085 649.698 527.68C650.701 527.253 651.917 527.04 653.346 527.04C654.434 527.04 655.522 527.189 656.61 527.488C657.698 527.765 658.594 528.139 659.298 528.608L658.306 530.432C657.559 529.92 656.759 529.557 655.906 529.344C655.053 529.109 654.199 528.992 653.346 528.992C651.831 528.992 650.711 529.259 649.986 529.792C649.282 530.304 648.93 530.965 648.93 531.776C648.93 532.416 649.122 532.917 649.506 533.28C649.911 533.643 650.434 533.931 651.074 534.144C651.735 534.336 652.45 534.496 653.218 534.624C654.007 534.752 654.786 534.912 655.554 535.104C656.343 535.275 657.058 535.52 657.698 535.84C658.359 536.139 658.882 536.576 659.266 537.152C659.671 537.707 659.874 538.443 659.874 539.36C659.874 540.341 659.597 541.195 659.042 541.92C658.509 542.624 657.719 543.179 656.674 543.584C655.65 543.968 654.402 544.16 652.93 544.16ZM679.394 544.16C677.73 544.16 676.237 543.797 674.914 543.072C673.613 542.325 672.589 541.312 671.842 540.032C671.095 538.731 670.722 537.248 670.722 535.584C670.722 533.899 671.095 532.416 671.842 531.136C672.589 529.856 673.613 528.853 674.914 528.128C676.237 527.403 677.73 527.04 679.394 527.04C680.823 527.04 682.114 527.317 683.266 527.872C684.418 528.427 685.325 529.259 685.986 530.368L684.29 531.52C683.714 530.667 682.999 530.037 682.146 529.632C681.293 529.227 680.365 529.024 679.362 529.024C678.167 529.024 677.09 529.301 676.13 529.856C675.17 530.389 674.413 531.147 673.858 532.128C673.303 533.109 673.026 534.261 673.026 535.584C673.026 536.907 673.303 538.059 673.858 539.04C674.413 540.021 675.17 540.789 676.13 541.344C677.09 541.877 678.167 542.144 679.362 542.144C680.365 542.144 681.293 541.941 682.146 541.536C682.999 541.131 683.714 540.512 684.29 539.68L685.986 540.832C685.325 541.92 684.418 542.752 683.266 543.328C682.114 543.883 680.823 544.16 679.394 544.16ZM697.016 544.16C695.395 544.16 693.933 543.797 692.632 543.072C691.352 542.325 690.339 541.312 689.592 540.032C688.845 538.731 688.472 537.248 688.472 535.584C688.472 533.899 688.845 532.416 689.592 531.136C690.339 529.856 691.352 528.853 692.632 528.128C693.912 527.403 695.373 527.04 697.016 527.04C698.68 527.04 700.152 527.403 701.432 528.128C702.733 528.853 703.747 529.856 704.472 531.136C705.219 532.416 705.592 533.899 705.592 535.584C705.592 537.248 705.219 538.731 704.472 540.032C703.747 541.312 702.733 542.325 701.432 543.072C700.131 543.797 698.659 544.16 697.016 544.16ZM697.016 542.144C698.232 542.144 699.309 541.877 700.248 541.344C701.187 540.789 701.923 540.021 702.456 539.04C703.011 538.037 703.288 536.885 703.288 535.584C703.288 534.261 703.011 533.109 702.456 532.128C701.923 531.147 701.187 530.389 700.248 529.856C699.309 529.301 698.243 529.024 697.048 529.024C695.853 529.024 694.787 529.301 693.848 529.856C692.909 530.389 692.163 531.147 691.608 532.128C691.053 533.109 690.776 534.261 690.776 535.584C690.776 536.885 691.053 538.037 691.608 539.04C692.163 540.021 692.909 540.789 693.848 541.344C694.787 541.877 695.843 542.144 697.016 542.144ZM731.223 527.04C732.588 527.04 733.772 527.307 734.775 527.84C735.799 528.352 736.588 529.141 737.143 530.208C737.719 531.275 738.007 532.619 738.007 534.24V544H735.735V534.464C735.735 532.693 735.308 531.36 734.455 530.464C733.623 529.547 732.439 529.088 730.903 529.088C729.751 529.088 728.748 529.333 727.895 529.824C727.063 530.293 726.412 530.987 725.943 531.904C725.495 532.8 725.271 533.888 725.271 535.168V544H722.999V534.464C722.999 532.693 722.572 531.36 721.719 530.464C720.865 529.547 719.671 529.088 718.135 529.088C717.004 529.088 716.012 529.333 715.159 529.824C714.305 530.293 713.644 530.987 713.175 531.904C712.727 532.8 712.503 533.888 712.503 535.168V544H710.231V527.2H712.407V531.744L712.055 530.944C712.567 529.728 713.388 528.779 714.519 528.096C715.671 527.392 717.025 527.04 718.583 527.04C720.225 527.04 721.623 527.456 722.775 528.288C723.927 529.099 724.673 530.325 725.015 531.968L724.119 531.616C724.609 530.251 725.473 529.152 726.711 528.32C727.969 527.467 729.473 527.04 731.223 527.04ZM765.16 527.04C766.525 527.04 767.709 527.307 768.712 527.84C769.736 528.352 770.525 529.141 771.08 530.208C771.656 531.275 771.944 532.619 771.944 534.24V544H769.672V534.464C769.672 532.693 769.245 531.36 768.392 530.464C767.56 529.547 766.376 529.088 764.84 529.088C763.688 529.088 762.685 529.333 761.832 529.824C761 530.293 760.349 530.987 759.88 531.904C759.432 532.8 759.208 533.888 759.208 535.168V544H756.936V534.464C756.936 532.693 756.509 531.36 755.656 530.464C754.803 529.547 753.608 529.088 752.072 529.088C750.941 529.088 749.949 529.333 749.096 529.824C748.243 530.293 747.581 530.987 747.112 531.904C746.664 532.8 746.44 533.888 746.44 535.168V544H744.168V527.2H746.344V531.744L745.992 530.944C746.504 529.728 747.325 528.779 748.456 528.096C749.608 527.392 750.963 527.04 752.52 527.04C754.163 527.04 755.56 527.456 756.712 528.288C757.864 529.099 758.611 530.325 758.952 531.968L758.056 531.616C758.547 530.251 759.411 529.152 760.648 528.32C761.907 527.467 763.411 527.04 765.16 527.04ZM785.05 544.16C783.62 544.16 782.372 543.893 781.306 543.36C780.239 542.827 779.407 542.027 778.81 540.96C778.234 539.893 777.946 538.56 777.946 536.96V527.2H780.218V536.704C780.218 538.496 780.655 539.851 781.53 540.768C782.426 541.664 783.674 542.112 785.274 542.112C786.447 542.112 787.46 541.877 788.314 541.408C789.188 540.917 789.85 540.213 790.298 539.296C790.767 538.379 791.002 537.28 791.002 536V527.2H793.274V544H791.097V539.392L791.45 540.224C790.916 541.461 790.084 542.432 788.954 543.136C787.844 543.819 786.543 544.16 785.05 544.16ZM808.182 527.04C809.547 527.04 810.742 527.307 811.766 527.84C812.811 528.352 813.622 529.141 814.198 530.208C814.795 531.275 815.094 532.619 815.094 534.24V544H812.822V534.464C812.822 532.693 812.374 531.36 811.478 530.464C810.603 529.547 809.366 529.088 807.766 529.088C806.571 529.088 805.526 529.333 804.63 529.824C803.755 530.293 803.072 530.987 802.582 531.904C802.112 532.8 801.878 533.888 801.878 535.168V544H799.606V527.2H801.782V531.808L801.43 530.944C801.963 529.728 802.816 528.779 803.99 528.096C805.163 527.392 806.56 527.04 808.182 527.04ZM821.231 544V527.2H823.503V544H821.231ZM822.383 523.488C821.913 523.488 821.519 523.328 821.199 523.008C820.879 522.688 820.719 522.304 820.719 521.856C820.719 521.408 820.879 521.035 821.199 520.736C821.519 520.416 821.913 520.256 822.383 520.256C822.852 520.256 823.247 520.405 823.567 520.704C823.887 521.003 824.047 521.376 824.047 521.824C824.047 522.293 823.887 522.688 823.567 523.008C823.268 523.328 822.873 523.488 822.383 523.488ZM835.136 544.16C833.558 544.16 832.342 543.733 831.488 542.88C830.635 542.027 830.208 540.821 830.208 539.264V523.488H832.48V539.136C832.48 540.117 832.726 540.875 833.216 541.408C833.728 541.941 834.454 542.208 835.392 542.208C836.395 542.208 837.227 541.92 837.888 541.344L838.688 542.976C838.24 543.381 837.696 543.68 837.056 543.872C836.438 544.064 835.798 544.16 835.136 544.16ZM827.2 529.088V527.2H837.6V529.088H827.2ZM842.64 550.368C841.85 550.368 841.093 550.24 840.368 549.984C839.664 549.728 839.056 549.344 838.544 548.832L839.6 547.136C840.026 547.541 840.485 547.851 840.976 548.064C841.488 548.299 842.053 548.416 842.672 548.416C843.418 548.416 844.058 548.203 844.592 547.776C845.146 547.371 845.669 546.645 846.16 545.6L847.248 543.136L847.504 542.784L854.416 527.2H856.656L848.24 546.016C847.77 547.104 847.248 547.968 846.672 548.608C846.117 549.248 845.509 549.696 844.848 549.952C844.186 550.229 843.45 550.368 842.64 550.368ZM847.12 544.48L839.376 527.2H841.744L848.592 542.624L847.12 544.48ZM858.986 544.16C858.516 544.16 858.111 543.989 857.77 543.648C857.45 543.307 857.29 542.891 857.29 542.4C857.29 541.888 857.45 541.472 857.77 541.152C858.111 540.832 858.516 540.672 858.986 540.672C859.455 540.672 859.85 540.832 860.17 541.152C860.511 541.472 860.682 541.888 860.682 542.4C860.682 542.891 860.511 543.307 860.17 543.648C859.85 543.989 859.455 544.16 858.986 544.16Z" fill="#737373"/>
</g>
<defs>
<clipPath id="clip0_18_8">
<rect width="1200" height="630" fill="white"/>
</clipPath>
</defs>
</svg>
